<?xml version="1.0" encoding="UTF-8"?>
<svg width="1200pt" height="1200pt" version="1.1" viewBox="0 0 1200 1200" xmlns="http://www.w3.org/2000/svg">
 <g fill="#810900">
  <path d="m516.67 50c-123.77 0-242.47 49.168-329.98 136.68s-136.68 206.21-136.68 329.98c0 123.77 49.168 242.46 136.68 329.98 87.516 87.52 206.21 136.68 329.98 136.68 11.168 0 22.332-0.33203 33.332-1.332v-33.332c-11 0.83203-22.168 1.332-33.332 1.332-69.652 0.11719-138.29-16.699-200-49-11.445-5.9141-22.57-12.426-33.336-19.5v-131.5c-0.023437-60.129 23.18-117.95 64.758-161.38 41.582-43.438 98.328-69.137 158.4-71.734 60.074-2.6016 118.83 18.098 164.01 57.781 17.414-37.176 45.039-68.633 79.648-90.703 34.613-22.074 74.785-33.852 115.84-33.965 41.051-0.10938 81.285 11.449 116.02 33.332-8.5-117.64-61.203-227.71-147.52-308.09-86.32-80.383-199.86-125.12-317.81-125.24zm0 400c-35.363 0-69.277-14.047-94.281-39.051-25.004-25.008-39.055-58.922-39.055-94.281 0-35.363 14.051-69.277 39.055-94.281 25.004-25.004 58.918-39.055 94.281-39.055 35.359 0 69.273 14.051 94.281 39.055 25.004 25.004 39.051 58.918 39.051 94.281-0.046875 35.348-14.109 69.234-39.105 94.227-24.992 24.996-58.879 39.059-94.227 39.105z"/>
  <path d="m1066.7 750h-16.668v-83.332c0-48.625-19.316-95.258-53.695-129.64-34.383-34.383-81.016-53.699-129.64-53.699-48.625 0-95.258 19.316-129.64 53.699-34.383 34.379-53.699 81.012-53.699 129.64v83.332h-16.664c-22.102 0.007812-43.293 8.7891-58.918 24.418-15.625 15.625-24.41 36.816-24.418 58.914v233.34c0.007813 22.098 8.793 43.289 24.418 58.914 15.625 15.629 36.816 24.41 58.918 24.418h400c22.098-0.007812 43.289-8.7891 58.914-24.418 15.629-15.625 24.41-36.816 24.418-58.914v-233.34c-0.007812-22.098-8.7891-43.289-24.418-58.914-15.625-15.629-36.816-24.41-58.914-24.418zm-350-83.332c0-53.59 28.59-103.11 75-129.91 46.41-26.793 103.59-26.793 150 0 46.41 26.797 75 76.316 75 129.91v83.332h-300z"/>
 </g>
</svg>
